<svg xmlns="http://www.w3.org/2000/svg" viewBox="0.09428566694259644 31.489999771118164 194.594970703125 73.0999984741211" data-asc="1.2958984375" width="194.594970703125" height="73.0999984741211"><defs/><g fill="#525252"><g transform="translate(0, 0)"><path d="M54.88 50.83Q54.35 51.51 54.05 52.34Q53.76 53.17 53.34 53.91Q52.93 54.64 52.32 55.13Q51.71 55.62 50.63 55.57Q49.85 55.86 49.49 56.62Q49.12 57.37 48.78 58.13Q48.44 58.89 47.90 59.35Q47.36 59.81 46.29 59.47Q44.92 60.06 43.82 61.01Q42.72 61.96 41.75 62.99Q41.41 63.33 40.97 63.84Q40.53 64.36 40.14 64.60Q39.79 64.79 39.45 64.65Q39.11 64.50 38.82 64.33Q38.53 64.16 38.26 64.16Q37.99 64.16 37.79 64.60Q38.13 65.28 37.94 65.55Q37.74 65.82 37.30 65.97Q36.87 66.11 36.38 66.21Q35.89 66.31 35.60 66.55Q35.01 67.09 34.77 67.87Q34.52 68.65 34.33 69.43Q34.13 70.21 33.76 70.92Q33.40 71.63 32.57 72.02Q33.06 72.36 32.98 72.71Q32.91 73.05 32.71 73.41Q32.52 73.78 32.45 74.12Q32.37 74.46 32.81 74.80Q32.08 75.73 31.52 76.81Q30.96 77.88 30.42 78.98Q29.88 80.08 29.27 81.13Q28.66 82.18 27.73 83.01L27.88 84.18Q27.15 83.98 26.98 84.23Q26.81 84.47 26.81 84.91Q26.81 85.35 26.83 85.82Q26.86 86.28 26.51 86.52Q26.37 86.72 26.20 86.82Q26.03 86.91 25.88 87.06Q24.32 88.23 23.73 90.04Q23.63 90.33 23.58 90.63Q23.54 90.92 23.44 91.26Q23.19 91.94 22.66 92.68Q22.12 93.41 21.48 94.19Q20.85 94.97 20.26 95.83Q19.68 96.68 19.34 97.56Q18.55 97.46 18.09 97.73Q17.63 98.00 17.33 98.46Q17.04 98.93 16.85 99.46Q16.65 100 16.33 100.42Q16.02 100.83 15.50 101.05Q14.99 101.27 14.16 101.03L11.96 103.03Q11.38 102.69 10.82 102.88Q10.25 103.08 9.69 103.42Q9.13 103.76 8.57 103.96Q8.01 104.15 7.37 103.81Q7.03 104.20 6.79 104.22Q6.54 104.25 6.20 103.81L5.47 104.59Q4.88 104.10 4.03 103.69Q3.17 103.27 2.44 102.76Q1.71 102.25 1.27 101.59Q0.83 100.93 1.12 99.90Q1.03 99.61 0.81 99.27Q0.59 98.93 0.44 98.56Q0.29 98.19 0.24 97.83Q0.20 97.46 0.44 97.17Q0 96.34 0.12 95.48Q0.24 94.63 0.49 93.80Q0.73 92.97 0.88 92.14Q1.03 91.31 0.59 90.48Q1.17 90.04 1.44 89.36Q1.71 88.67 1.93 87.94Q2.15 87.21 2.39 86.52Q2.64 85.84 3.22 85.40L3.17 84.62Q5.47 82.18 8.03 80.15Q10.60 78.13 13.82 77.15Q14.45 76.03 15.48 75.51Q16.50 75 17.55 74.58Q18.60 74.17 19.48 73.56Q20.36 72.95 20.80 71.63Q21.04 72.17 21.29 72.09Q21.53 72.02 21.80 71.85Q22.07 71.68 22.31 71.61Q22.56 71.53 22.80 72.02Q23.29 70.56 24.39 69.68Q25.49 68.80 26.83 68.14Q28.17 67.48 29.54 66.87Q30.91 66.26 31.96 65.38Q33.01 64.50 33.54 63.21Q34.08 61.91 33.79 59.86Q34.23 59.57 34.38 59.11Q34.52 58.64 34.59 58.15Q34.67 57.67 34.81 57.28Q34.96 56.88 35.45 56.74Q35.11 56.20 34.62 56.25Q34.13 56.30 33.62 56.54Q33.11 56.79 32.67 57.03Q32.23 57.28 31.93 57.13Q31.79 57.81 31.32 58.11Q30.86 58.40 30.32 58.62Q29.79 58.84 29.20 59.08Q28.61 59.33 28.27 59.86Q27.83 59.67 27.47 60.03Q27.10 60.40 26.73 60.82Q26.37 61.23 25.93 61.43Q25.49 61.62 24.90 61.04Q24.61 61.82 23.95 62.06Q23.29 62.30 22.51 62.30Q21.73 62.30 20.92 62.21Q20.12 62.11 19.48 62.26L18.65 61.43Q18.55 61.67 18.33 61.82Q18.12 61.96 17.87 61.87Q17.48 61.04 17.11 60.08Q16.75 59.13 16.63 58.18Q16.50 57.23 16.80 56.32Q17.09 55.42 17.97 54.74Q19.34 52.25 21.53 50.83Q21.78 51.03 22.07 50.95Q22.36 50.88 22.68 50.71Q23.00 50.54 23.29 50.32Q23.58 50.10 23.83 50.05Q23.97 49.51 24.39 49.02Q24.80 48.54 25.32 48.14Q25.83 47.75 26.39 47.44Q26.95 47.12 27.44 46.88Q28.37 46.44 29.17 45.78Q29.98 45.12 30.81 44.51Q31.64 43.90 32.52 43.46Q33.40 43.02 34.52 43.02L35.40 43.80Q34.57 44.29 33.96 45.00Q33.35 45.70 32.71 46.41Q32.08 47.12 31.35 47.71Q30.62 48.29 29.54 48.49Q28.66 50.20 27.17 51.39Q25.68 52.59 24.12 53.61Q24.12 54.35 23.68 54.79Q23.24 55.22 22.66 55.57Q22.07 55.91 21.48 56.18Q20.90 56.45 20.53 56.86Q20.17 57.28 20.17 57.89Q20.17 58.50 20.80 59.47Q21.39 59.18 22.22 59.08Q23.05 58.98 23.83 58.81Q24.61 58.64 25.22 58.28Q25.83 57.91 26.07 57.13Q26.76 56.54 27.54 56.40Q28.32 56.25 29.15 56.35Q30.76 54.59 32.40 53.10Q34.03 51.61 35.50 50.05Q36.96 48.49 38.21 46.70Q39.45 44.92 40.38 42.58Q41.36 42.29 42.14 42.82Q42.92 43.36 43.26 44.19Q43.16 44.78 42.94 45.29Q42.72 45.80 42.55 46.26Q42.38 46.73 42.31 47.27Q42.24 47.80 42.48 48.49Q42.09 48.39 41.87 48.73Q41.65 49.07 41.41 49.32Q41.55 49.95 41.36 50.46Q41.16 50.98 40.87 51.44Q40.58 51.90 40.36 52.44Q40.14 52.98 40.23 53.61Q39.55 54.88 39.23 56.27Q38.92 57.67 38.82 59.08L39.70 59.86Q40.33 58.94 41.28 58.54Q42.24 58.15 43.21 57.89Q44.19 57.62 45.12 57.25Q46.04 56.88 46.73 55.96Q47.02 54.54 47.95 53.93Q48.88 53.32 49.90 52.88Q50.93 52.44 51.88 51.88Q52.83 51.32 53.22 50.05L54.44 50.05Q54.35 50.29 54.54 50.49Q54.74 50.68 54.88 50.83M27.88 72.46Q27.39 72.75 26.81 73.00Q26.22 73.24 25.63 73.54Q25.05 73.83 24.56 74.22Q24.07 74.61 23.83 75.20Q23.29 74.90 22.83 75.17Q22.36 75.44 21.92 75.81Q21.48 76.17 21.02 76.42Q20.56 76.66 20.02 76.37Q19.09 76.95 18.24 77.64Q17.38 78.32 16.50 78.98Q15.63 79.64 14.67 80.20Q13.72 80.76 12.65 81.05Q12.11 81.93 11.23 82.45Q10.35 82.96 9.45 83.45Q8.54 83.94 7.81 84.62Q7.08 85.30 6.88 86.52Q5.37 87.50 4.81 89.04Q4.25 90.58 4.20 92.31Q4.15 94.04 4.35 95.83Q4.54 97.61 4.54 99.07Q5.18 99.80 5.81 100.10Q6.45 100.39 7.13 100.39Q7.81 100.39 8.52 100.22Q9.23 100.05 10.06 99.90Q10.25 99.17 10.77 98.95Q11.28 98.73 11.84 98.63Q12.40 98.54 12.87 98.36Q13.33 98.19 13.38 97.56L13.82 97.95Q13.87 97.17 14.26 96.66Q14.65 96.14 15.19 95.70Q15.72 95.26 16.33 94.87Q16.94 94.48 17.38 93.99Q17.29 93.07 17.72 92.43Q18.16 91.80 18.70 91.26Q19.24 90.72 19.65 90.09Q20.07 89.45 19.97 88.48Q20.46 88.28 20.65 87.84Q20.85 87.40 21.04 87.01Q21.24 86.62 21.56 86.43Q21.88 86.23 22.56 86.52Q21.88 85.99 22.00 85.69Q22.12 85.40 22.46 85.18Q22.80 84.96 23.10 84.67Q23.39 84.38 23.10 83.79Q24.27 83.30 24.61 82.37Q24.95 81.45 25.12 80.40Q25.29 79.35 25.63 78.34Q25.98 77.34 27.15 76.76Q27.05 75.88 27.47 75.22Q27.88 74.56 28.30 73.97Q28.71 73.39 28.88 72.75Q29.05 72.12 28.52 71.24L27.88 72.46ZM86.08 62.35Q85.50 62.35 85.18 62.38Q84.86 62.40 84.62 62.45Q84.38 62.50 84.08 62.65Q83.79 62.79 83.30 63.09Q83.11 63.62 82.79 63.89Q82.47 64.16 82.06 64.33Q81.64 64.50 81.20 64.67Q80.76 64.84 80.37 65.23Q76.66 65.82 73.83 63.57Q73.49 63.33 73.22 63.04Q72.95 62.74 72.61 62.50Q72.36 62.30 72.34 62.33Q72.31 62.35 72.12 62.11Q71.78 61.62 71.70 60.91Q71.63 60.21 71.48 59.55Q71.34 58.89 70.92 58.42Q70.51 57.96 69.48 58.01Q68.99 59.03 68.09 60.08Q67.19 61.13 66.06 61.96Q64.94 62.79 63.70 63.33Q62.45 63.87 61.33 63.87Q60.94 64.99 59.99 65.55Q59.03 66.11 57.96 66.41Q57.86 66.46 57.57 66.53Q57.28 66.60 57.23 66.60Q56.54 66.65 56.15 66.36Q55.76 66.06 55.42 65.72Q55.08 65.38 54.69 65.09Q54.30 64.79 53.61 64.79Q53.08 63.53 52.54 62.30Q52.00 61.08 51.76 59.81Q52.20 59.57 52.22 59.20Q52.25 58.84 52.25 58.45Q51.46 58.20 51.44 57.84Q51.42 57.47 51.59 57.08Q51.76 56.69 51.93 56.32Q52.10 55.96 51.76 55.71Q52.15 52.73 53.47 49.95Q54.79 47.17 57.23 45.31Q56.93 44.38 57.40 43.90Q57.86 43.41 58.52 43.36Q59.18 43.31 59.79 43.68Q60.40 44.04 60.40 44.82Q60.45 45.17 60.35 45.51Q60.25 45.85 60.16 46.14Q59.86 47.61 59.28 48.97Q58.69 50.34 58.01 51.66Q57.32 52.98 56.62 54.30Q55.91 55.62 55.42 57.03Q54.83 57.42 55.03 57.86Q55.22 58.30 55.54 58.72Q55.86 59.13 55.88 59.52Q55.91 59.91 54.98 60.25Q54.69 60.94 55.13 61.45Q55.57 61.96 55.86 62.50Q56.25 62.55 56.62 62.50Q56.98 62.45 57.23 62.06Q57.81 62.45 58.28 62.21Q58.74 61.96 59.25 61.60Q59.77 61.23 60.38 60.99Q60.99 60.74 61.77 61.13Q62.11 60.79 62.33 60.30Q62.55 59.81 62.79 59.38Q63.04 58.94 63.40 58.64Q63.77 58.35 64.45 58.45Q65.14 57.23 66.26 56.42Q67.38 55.62 68.53 54.88Q69.68 54.15 70.58 53.32Q71.48 52.49 71.73 51.17Q72.66 49.71 73.61 47.88Q74.56 46.04 75.83 44.82Q75.98 44.43 76.32 44.21Q76.66 43.99 77.05 43.92Q77.44 43.85 77.83 43.97Q78.22 44.09 78.52 44.38Q78.61 45.26 78.30 46.00Q77.98 46.73 77.61 47.44Q77.25 48.14 77.05 48.93Q76.86 49.71 77.20 50.73Q76.51 51.12 75.85 51.42Q75.20 51.71 74.63 52.05Q74.07 52.39 73.66 52.93Q73.24 53.47 73.10 54.35Q74.41 54.83 74.66 55.57Q74.90 56.30 74.90 57.15Q74.90 58.01 75.02 58.91Q75.15 59.81 76.27 60.69Q76.46 60.84 76.54 60.91Q76.61 60.99 76.86 61.08Q77.34 61.23 77.73 61.06Q78.13 60.89 78.49 60.74Q78.86 60.60 79.27 60.62Q79.69 60.64 80.22 61.23Q80.96 60.30 81.59 61.23Q82.18 60.16 82.67 60.01Q83.15 59.86 83.62 59.91Q84.08 59.96 84.57 59.81Q85.06 59.67 85.64 58.59L86.08 59.03Q86.38 58.25 86.79 58.28Q87.21 58.30 87.60 58.42Q87.99 58.54 88.28 58.42Q88.57 58.30 88.57 57.28Q89.01 57.28 89.33 57.08Q89.65 56.88 89.97 56.64Q90.28 56.40 90.67 56.23Q91.06 56.05 91.60 56.05L90.33 59.13L86.08 62.35ZM122.85 55.13Q121.73 55.66 121.34 56.45Q120.95 57.23 120.73 58.06Q120.51 58.89 120.19 59.64Q119.87 60.40 118.85 60.89Q118.60 61.77 117.90 62.11Q117.19 62.45 116.41 62.72Q115.63 62.99 115.01 63.43Q114.40 63.87 114.40 64.94Q113.43 65.48 112.28 65.92Q111.13 66.36 109.89 66.58Q108.64 66.80 107.42 66.75Q106.20 66.70 105.13 66.26Q104.39 65.92 103.71 65.38Q103.47 65.19 103.25 65.06Q103.03 64.94 102.78 64.70Q102.20 64.11 101.81 63.33Q101.42 62.55 101.17 61.67Q100.93 60.79 100.78 59.91Q100.63 59.03 100.54 58.25L102.34 53.37Q100.93 52.25 100.05 50.76Q99.17 49.27 97.90 48.00Q97.66 48.34 97.27 48.58Q96.88 48.83 96.97 49.37L97.46 49.80Q95.85 51.56 94.21 53.78Q92.58 56.01 91.65 58.25Q90.58 58.20 90.14 58.76Q89.70 59.33 89.40 60.03Q89.11 60.74 88.67 61.33Q88.23 61.91 87.21 61.82Q86.96 62.35 86.72 62.96Q86.47 63.57 86.13 64.11Q85.79 64.65 85.30 65.01Q84.81 65.38 84.08 65.38Q83.69 64.99 83.64 64.55Q83.59 64.11 83.74 63.65Q83.89 63.18 84.13 62.72Q84.38 62.26 84.47 61.82Q84.86 60.40 85.89 59.25Q86.91 58.11 87.94 56.96Q88.96 55.81 89.70 54.54Q90.43 53.27 90.28 51.56Q90.92 51.51 91.58 51.29Q92.24 51.07 92.80 50.71Q93.36 50.34 93.68 49.78Q93.99 49.22 93.90 48.44Q93.51 48.24 93.46 47.88Q93.41 47.51 93.46 47.12Q94.53 46.78 95.19 45.92Q95.85 45.07 96.39 44.09Q96.92 43.12 97.44 42.11Q97.95 41.11 98.78 40.38Q99.46 40.77 100.15 41.04Q100.83 41.31 101.46 41.75Q101.03 42.33 100.93 42.87Q100.83 43.41 100.83 43.97Q100.83 44.53 100.83 45.07Q100.83 45.61 100.54 46.19Q101.32 46.88 101.86 47.80Q102.39 48.73 103.22 49.37Q103.81 48.93 104.54 48.90Q105.27 48.88 106.03 48.90Q106.79 48.93 107.47 48.80Q108.15 48.68 108.59 48.00Q108.79 48.19 109.18 48.19Q109.57 48.19 109.96 48.19Q110.35 48.19 110.64 48.32Q110.94 48.44 110.99 48.78Q111.04 49.17 110.96 49.32Q110.89 49.46 110.79 49.80Q110.69 50.20 110.74 50.20Q110.79 50.20 110.64 50.54Q110.40 51.17 109.84 51.61Q109.28 52.05 108.72 52.47Q108.15 52.88 107.69 53.39Q107.23 53.91 107.23 54.69Q106.15 55.08 105.71 55.83Q105.27 56.59 105.13 57.54Q104.98 58.50 104.93 59.50Q104.88 60.50 104.59 61.33L105.03 61.82L105.42 61.33Q106.10 62.30 107.06 62.55Q108.01 62.79 109.03 62.70Q109.52 61.96 110.18 61.52Q110.84 61.08 111.60 60.79Q112.35 60.50 113.16 60.25Q113.96 60.01 114.70 59.67Q115.28 59.38 115.70 59.03Q116.11 58.69 116.60 58.25Q118.07 56.88 119.51 55.57Q120.95 54.25 122.41 52.88Q122.71 52.88 122.80 53.17Q122.90 53.47 122.90 53.83Q122.90 54.20 122.88 54.57Q122.85 54.93 122.85 55.13ZM168.75 47.02Q168.80 47.85 168.55 48.61Q168.31 49.37 168.02 50.12Q167.72 50.88 167.46 51.64Q167.19 52.39 167.19 53.22Q166.65 53.17 166.33 53.54Q166.02 53.91 165.80 54.44Q165.58 54.98 165.43 55.54Q165.28 56.10 165.14 56.40Q164.16 58.25 162.67 59.94Q161.18 61.62 159.40 63.06Q157.62 64.50 155.66 65.67Q153.71 66.85 151.76 67.68L151.71 67.72Q150.83 67.72 149.78 67.68Q148.73 67.63 148.00 66.94Q147.31 67.04 146.48 66.82Q145.65 66.60 145.17 66.11L145.12 66.06Q144.73 65.38 144.29 64.89Q143.85 64.40 143.31 63.87Q142.63 63.13 142.02 62.45Q141.41 61.77 141.06 60.79Q140.67 59.67 140.36 58.52Q140.04 57.37 139.55 56.25Q138.67 57.32 137.74 58.08Q136.82 58.84 135.94 59.57Q135.06 60.30 134.30 61.23Q133.54 62.16 132.96 63.57L132.91 63.67Q131.45 63.67 130.40 64.43Q129.35 65.19 128.37 65.87Q127.39 66.55 126.34 66.85Q125.29 67.14 123.93 66.16L122.27 66.16L122.22 66.06Q121.34 64.26 120.53 62.26Q119.73 60.25 119.29 58.18Q118.85 56.10 118.90 54.03Q118.95 51.95 119.73 49.95Q120.07 49.12 120.48 48.39Q120.90 47.66 121.44 46.92Q121.48 46.88 121.48 46.83Q121.78 47.07 122.09 46.68Q122.41 46.29 122.56 46.14L122.56 44.48Q122.71 44.43 122.97 44.43Q123.24 44.43 123.49 44.43Q123.73 44.43 123.93 44.41Q124.12 44.38 124.17 44.19Q124.22 44.14 124.17 44.04Q124.12 43.95 124.12 43.85Q124.12 43.26 124.44 42.90Q124.76 42.53 125.20 42.24Q125.63 41.94 126.07 41.72Q126.51 41.50 126.71 41.26Q127.10 41.26 127.44 41.28Q127.78 41.31 128.08 41.55Q128.37 41.80 128.49 42.24Q128.61 42.68 128.64 43.14Q128.66 43.60 128.71 44.09Q128.76 44.58 128.91 44.92L128.96 44.97Q128.96 45.65 128.64 46.12Q128.32 46.58 127.91 46.97Q127.49 47.36 127.08 47.75Q126.66 48.14 126.51 48.68L126.51 48.73Q125.98 49.41 125.42 50.10Q124.85 50.78 124.22 51.46Q124.76 51.90 124.58 52.22Q124.41 52.54 124.10 52.78Q123.78 53.03 123.66 53.27Q123.54 53.52 124.17 53.81Q124.02 54.25 123.68 54.66Q123.34 55.08 123.02 55.52Q122.71 55.96 122.58 56.40Q122.46 56.84 122.85 57.37L122.95 57.42Q122.80 57.67 122.88 58.33Q122.95 58.98 123.12 59.74Q123.29 60.50 123.49 61.21Q123.68 61.91 123.73 62.26Q124.12 62.89 124.68 63.11Q125.24 63.33 125.76 63.28Q126.27 63.23 126.64 62.99Q127.00 62.74 127.00 62.40L127.34 62.26Q127.44 62.60 127.64 62.57Q127.83 62.55 128.08 62.40Q128.32 62.30 128.42 62.26Q128.52 62.21 128.76 62.16Q129.64 61.96 130.59 61.33Q131.54 60.69 132.37 59.86Q133.20 59.03 133.81 58.06Q134.42 57.08 134.67 56.25L134.67 56.15L134.77 56.15Q135.74 55.76 136.38 55.03Q137.01 54.30 137.55 53.54Q138.09 52.78 138.72 52.17Q139.36 51.56 140.33 51.37Q140.48 50.98 140.77 50.66Q141.06 50.34 141.33 50.02Q141.60 49.71 141.82 49.39Q142.04 49.07 142.04 48.68Q142.04 48.49 141.97 48.19Q141.89 47.90 141.89 47.80Q142.09 47.61 142.68 47.14Q143.26 46.68 143.87 46.14Q144.48 45.61 145.02 45.12Q145.56 44.63 145.65 44.38L145.75 44.48Q146.29 45.02 146.48 45.58Q146.68 46.14 146.68 46.70Q146.68 47.27 146.53 47.88Q146.39 48.49 146.29 49.07L146.24 49.12Q145.95 49.61 145.68 49.98Q145.41 50.34 145.02 50.73Q144.38 51.37 143.85 52.29Q143.99 53.03 143.85 53.76Q143.70 54.49 143.55 55.20Q143.41 55.91 143.43 56.59Q143.46 57.28 143.90 57.96Q143.46 58.20 143.43 58.47Q143.41 58.74 143.58 59.03Q143.75 59.33 143.97 59.62Q144.19 59.91 144.24 60.25Q144.92 61.13 145.85 61.62Q146.78 62.11 147.80 62.30Q148.83 62.50 149.88 62.52Q150.93 62.55 151.95 62.55L153.32 62.55Q154.88 62.55 155.81 61.82Q156.74 61.08 157.45 60.06Q158.15 59.03 158.89 57.96Q159.62 56.88 160.79 56.20Q160.79 55.42 161.13 55.03Q161.47 54.64 161.84 54.35Q162.21 54.05 162.43 53.69Q162.65 53.32 162.35 52.59Q162.94 52.39 163.33 51.86Q163.72 51.32 164.04 50.66Q164.36 50 164.62 49.34Q164.89 48.68 165.23 48.19Q165.09 47.66 165.16 47.17Q165.23 46.68 165.28 46.22Q165.33 45.75 165.19 45.31Q165.04 44.87 164.45 44.38L164.40 44.34L164.40 44.29Q164.16 43.70 164.33 43.31Q164.50 42.92 164.82 42.58Q165.14 42.24 165.41 41.94Q165.67 41.65 165.63 41.26Q167.14 41.26 167.80 41.77Q168.46 42.29 168.65 43.09Q168.85 43.90 168.77 44.92Q168.70 45.95 168.75 47.02ZM185.21 34.33Q184.33 34.67 184.23 35.35Q184.13 36.04 184.16 36.77Q184.18 37.50 184.08 38.13Q183.98 38.77 183.11 38.96Q182.76 38.38 182.25 37.87Q181.74 37.35 181.25 36.84Q180.76 36.33 180.47 35.74Q180.18 35.16 180.27 34.33L182.71 31.49Q183.30 31.69 183.64 31.98Q183.98 32.28 184.23 32.67Q184.47 33.06 184.69 33.47Q184.91 33.89 185.21 34.33M194.68 56.20Q194.73 57.28 194.51 57.71Q194.29 58.15 193.99 58.42Q193.70 58.69 193.48 59.01Q193.26 59.33 193.26 60.11Q192.14 61.33 191.46 61.89Q190.77 62.45 190.14 62.82Q189.50 63.18 188.72 63.62Q187.94 64.06 186.57 64.99L186.23 65.04Q186.08 65.77 185.72 65.89Q185.35 66.02 184.89 66.02Q184.42 66.02 183.98 66.11Q183.54 66.21 183.25 66.94Q182.42 67.19 181.84 67.14Q181.25 67.09 180.32 67.09Q180.03 67.09 179.57 67.04Q179.10 66.99 178.81 67.09Q178.61 67.14 178.39 67.36Q178.17 67.58 177.93 67.72Q177.69 67.87 177.44 67.85Q177.20 67.82 177.00 67.43Q176.42 67.58 175.93 67.43Q175.44 67.29 175 66.94Q174.56 66.60 174.19 66.14Q173.83 65.67 173.49 65.28Q173.24 64.99 172.95 64.75Q172.66 64.50 172.41 64.26Q171.88 63.72 171.63 62.89Q171.39 62.06 171.34 61.18Q171.29 60.30 171.39 59.42Q171.48 58.54 171.68 57.86Q172.12 57.42 172.29 56.86Q172.46 56.30 172.58 55.71Q172.71 55.13 172.88 54.57Q173.05 54.00 173.49 53.56Q173.49 52.93 173.71 52.39Q173.93 51.86 174.29 51.37Q174.66 50.88 175.12 50.46Q175.59 50.05 175.98 49.66Q176.37 49.66 176.76 49.63Q177.15 49.61 177.49 49.68Q177.83 49.76 178.08 49.98Q178.32 50.20 178.47 50.68Q178.81 52.00 178.30 52.81Q177.78 53.61 177.15 54.35Q176.51 55.08 176.12 55.86Q175.73 56.64 176.32 57.86Q175.78 57.86 175.61 58.15Q175.44 58.45 175.37 58.81Q175.29 59.18 175.15 59.52Q175 59.86 174.56 60.01Q174.85 60.30 174.88 61.04Q174.90 61.77 175.02 62.43Q175.15 63.09 175.46 63.48Q175.78 63.87 176.66 63.53Q177.29 64.06 178.20 63.96Q179.10 63.87 179.88 63.92Q180.57 63.48 181.05 63.45Q181.54 63.43 181.98 63.55Q182.42 63.67 182.91 63.77Q183.40 63.87 184.08 63.62Q184.28 62.79 184.77 62.65Q185.25 62.50 185.74 62.48Q186.23 62.45 186.65 62.30Q187.06 62.16 187.21 61.33Q187.60 60.84 188.13 60.77Q188.67 60.69 189.23 60.60Q189.79 60.50 190.26 60.18Q190.72 59.86 190.92 58.94Q191.75 58.30 192.11 57.98Q192.48 57.67 192.72 57.47Q192.97 57.28 193.36 57.03Q193.75 56.79 194.68 56.20Z"/></g></g></svg>